<svg width="20" height="20" viewBox="0 0 20 20" fill="none" xmlns="http://www.w3.org/2000/svg">
<g id="Delivery">
<path id="Union" d="M10 2.5L10.2236 2.05279L10 1.94098L9.77639 2.05279L10 2.5ZM17.5 6.25H18V5.94098L17.7236 5.80279L17.5 6.25ZM17.5 13.75L17.7236 14.1972L18 14.059V13.75H17.5ZM10 17.5L9.77639 17.9472L10 18.059L10.2236 17.9472L10 17.5ZM2.5 13.75H2V14.059L2.27639 14.1972L2.5 13.75ZM2.5 6.25L2.27639 5.80279L2 5.94098V6.25H2.5ZM13.6667 10.8333C13.6667 11.1095 13.8905 11.3333 14.1667 11.3333C14.4428 11.3333 14.6667 11.1095 14.6667 10.8333H13.6667ZM14.1667 7.91667H14.6667V7.60765L14.3903 7.46945L14.1667 7.91667ZM6.89027 3.71945C6.64328 3.59596 6.34295 3.69607 6.21945 3.94306C6.09596 4.19005 6.19607 4.49039 6.44306 4.61388L6.89027 3.71945ZM9.5 17.0833C9.5 17.3595 9.72386 17.5833 10 17.5833C10.2761 17.5833 10.5 17.3595 10.5 17.0833H9.5ZM9.77639 2.94721L17.2764 6.69721L17.7236 5.80279L10.2236 2.05279L9.77639 2.94721ZM17 6.25V13.75H18V6.25H17ZM17.2764 13.3028L9.77639 17.0528L10.2236 17.9472L17.7236 14.1972L17.2764 13.3028ZM10.2236 17.0528L2.72361 13.3028L2.27639 14.1972L9.77639 17.9472L10.2236 17.0528ZM3 13.75V6.25H2V13.75H3ZM2.72361 6.69721L10.2236 2.94721L9.77639 2.05279L2.27639 5.80279L2.72361 6.69721ZM17.2764 5.80279L9.77639 9.55279L10.2236 10.4472L17.7236 6.69721L17.2764 5.80279ZM10.2236 9.55279L2.72361 5.80279L2.27639 6.69721L9.77639 10.4472L10.2236 9.55279ZM14.6667 10.8333V7.91667H13.6667V10.8333H14.6667ZM14.3903 7.46945L6.89027 3.71945L6.44306 4.61388L13.9431 8.36388L14.3903 7.46945ZM10.5 17.0833V10H9.5V17.0833H10.5Z" fill="#ACACAC"/>
</g>
</svg>
